{"asset":{"version":"2.0","generator":"STView original platform presets"},"scene":0,"scenes":[{"nodes":[0]}],"nodes":[{"mesh":0}],"meshes":[{"primitives":[{"attributes":{"POSITION":0,"NORMAL":1},"material":0},{"attributes":{"POSITION":2,"NORMAL":3},"material":1}]}],"materials":[{"pbrMetallicRoughness":{"baseColorFactor":[0.78,0.84,0.9,1],"metallicFactor":0.15,"roughnessFactor":0.7},"doubleSided":true},{"pbrMetallicRoughness":{"baseColorFactor":[0.1,0.2,0.27,1],"metallicFactor":0.15,"roughnessFactor":0.7},"doubleSided":true},{"pbrMetallicRoughness":{"baseColorFactor":[0.06,0.55,0.85,1],"metallicFactor":0.15,"roughnessFactor":0.7},"doubleSided":true}],"buffers":[{"byteLength":44064,"uri":"data:application/octet-stream;base64,"}],"bufferViews":[{"buffer":0,"byteOffset":0,"byteLength":432,"target":34962},{"buffer":0,"byteOffset":432,"byteLength":432,"target":34962},{"buffer":0,"byteOffset":864,"byteLength":21600,"target":34962},{"buffer":0,"byteOffset":22464,"byteLength":21600,"target":34962}],"accessors":[{"bufferView":0,"componentType":5126,"count":36,"type":"VEC3","min":[-0.225,-0.13,-0.14],"max":[0.225,0.13,0.14]},{"bufferView":1,"componentType":5126,"count":36,"type":"VEC3"},{"bufferView":2,"componentType":5126,"count":1800,"type":"VEC3","min":[-0.35500000000000004,-0.67,-0.275],"max":[0.36,0.1,0.275]},{"bufferView":3,"componentType":5126,"count":1800,"type":"VEC3"}]}
