{"asset":{"version":"2.0","generator":"STView original platform presets"},"scene":0,"scenes":[{"nodes":[0]}],"nodes":[{"mesh":0}],"meshes":[{"primitives":[{"attributes":{"POSITION":0,"NORMAL":1},"material":0},{"attributes":{"POSITION":2,"NORMAL":3},"material":1},{"attributes":{"POSITION":4,"NORMAL":5},"material":2}]}],"materials":[{"pbrMetallicRoughness":{"baseColorFactor":[0.78,0.84,0.9,1],"metallicFactor":0.15,"roughnessFactor":0.7},"doubleSided":true},{"pbrMetallicRoughness":{"baseColorFactor":[0.1,0.2,0.27,1],"metallicFactor":0.15,"roughnessFactor":0.7},"doubleSided":true},{"pbrMetallicRoughness":{"baseColorFactor":[0.06,0.55,0.85,1],"metallicFactor":0.15,"roughnessFactor":0.7},"doubleSided":true}],"buffers":[{"byteLength":90720,"uri":"data:application/octet-stream;base64,"}],"bufferViews":[{"buffer":0,"byteOffset":0,"byteLength":21168,"target":34962},{"buffer":0,"byteOffset":21168,"byteLength":21168,"target":34962},{"buffer":0,"byteOffset":42336,"byteLength":23760,"target":34962},{"buffer":0,"byteOffset":66096,"byteLength":23760,"target":34962},{"buffer":0,"byteOffset":89856,"byteLength":432,"target":34962},{"buffer":0,"byteOffset":90288,"byteLength":432,"target":34962}],"accessors":[{"bufferView":0,"componentType":5126,"count":1764,"type":"VEC3","min":[-4.2,-0.9,-0.8],"max":[3.2,0.9,0.8]},{"bufferView":1,"componentType":5126,"count":1764,"type":"VEC3"},{"bufferView":2,"componentType":5126,"count":1980,"type":"VEC3","min":[-4.5,-1.11,-5.0],"max":[5.5,2.04,5.0]},{"bufferView":3,"componentType":5126,"count":1980,"type":"VEC3"},{"bufferView":4,"componentType":5126,"count":36,"type":"VEC3","min":[-4.35,-0.050000000000000044,-0.06],"max":[-3.8499999999999996,1.55,0.06]},{"bufferView":5,"componentType":5126,"count":36,"type":"VEC3"}]}
