{"asset":{"version":"2.0","generator":"STView original platform presets"},"scene":0,"scenes":[{"nodes":[0]}],"nodes":[{"mesh":0}],"meshes":[{"primitives":[{"attributes":{"POSITION":0,"NORMAL":1},"material":0},{"attributes":{"POSITION":2,"NORMAL":3},"material":1},{"attributes":{"POSITION":4,"NORMAL":5},"material":2}]}],"materials":[{"pbrMetallicRoughness":{"baseColorFactor":[0.78,0.84,0.9,1],"metallicFactor":0.15,"roughnessFactor":0.7},"doubleSided":true},{"pbrMetallicRoughness":{"baseColorFactor":[0.1,0.2,0.27,1],"metallicFactor":0.15,"roughnessFactor":0.7},"doubleSided":true},{"pbrMetallicRoughness":{"baseColorFactor":[0.06,0.55,0.85,1],"metallicFactor":0.15,"roughnessFactor":0.7},"doubleSided":true}],"buffers":[{"byteLength":214272,"uri":"data:application/octet-stream;base64,"}],"bufferViews":[{"buffer":0,"byteOffset":0,"byteLength":432,"target":34962},{"buffer":0,"byteOffset":432,"byteLength":432,"target":34962},{"buffer":0,"byteOffset":864,"byteLength":105840,"target":34962},{"buffer":0,"byteOffset":106704,"byteLength":105840,"target":34962},{"buffer":0,"byteOffset":212544,"byteLength":864,"target":34962},{"buffer":0,"byteOffset":213408,"byteLength":864,"target":34962}],"accessors":[{"bufferView":0,"componentType":5126,"count":36,"type":"VEC3","min":[-0.25,-0.09,-0.2],"max":[0.25,0.09,0.2]},{"bufferView":1,"componentType":5126,"count":36,"type":"VEC3"},{"bufferView":2,"componentType":5126,"count":8820,"type":"VEC3","min":[-1.04,-0.3,-0.7999999999999999],"max":[0.8,0.19,0.7999999999999999]},{"bufferView":3,"componentType":5126,"count":8820,"type":"VEC3"},{"bufferView":4,"componentType":5126,"count":72,"type":"VEC3","min":[0.35999999999999993,0.16999999999999998,-0.74],"max":[1.04,0.19,0.74]},{"bufferView":5,"componentType":5126,"count":72,"type":"VEC3"}]}
