{"asset":{"version":"2.0","generator":"STView original platform presets"},"scene":0,"scenes":[{"nodes":[0]}],"nodes":[{"mesh":0}],"meshes":[{"primitives":[{"attributes":{"POSITION":0,"NORMAL":1},"material":0},{"attributes":{"POSITION":2,"NORMAL":3},"material":1},{"attributes":{"POSITION":4,"NORMAL":5},"material":2}]}],"materials":[{"pbrMetallicRoughness":{"baseColorFactor":[0.78,0.84,0.9,1],"metallicFactor":0.15,"roughnessFactor":0.7},"doubleSided":true},{"pbrMetallicRoughness":{"baseColorFactor":[0.1,0.2,0.27,1],"metallicFactor":0.15,"roughnessFactor":0.7},"doubleSided":true},{"pbrMetallicRoughness":{"baseColorFactor":[0.06,0.55,0.85,1],"metallicFactor":0.15,"roughnessFactor":0.7},"doubleSided":true}],"buffers":[{"byteLength":127008,"uri":"data:application/octet-stream;base64,"}],"bufferViews":[{"buffer":0,"byteOffset":0,"byteLength":21600,"target":34962},{"buffer":0,"byteOffset":21600,"byteLength":21600,"target":34962},{"buffer":0,"byteOffset":43200,"byteLength":41472,"target":34962},{"buffer":0,"byteOffset":84672,"byteLength":41472,"target":34962},{"buffer":0,"byteOffset":126144,"byteLength":432,"target":34962},{"buffer":0,"byteOffset":126576,"byteLength":432,"target":34962}],"accessors":[{"bufferView":0,"componentType":5126,"count":1800,"type":"VEC3","min":[-3.5,-0.45,-5.0],"max":[3.5,0.45,5.0]},{"bufferView":1,"componentType":5126,"count":1800,"type":"VEC3"},{"bufferView":2,"componentType":5126,"count":3456,"type":"VEC3","min":[0.95,-0.74,-0.36],"max":[2.45,0.62,0.36]},{"bufferView":3,"componentType":5126,"count":3456,"type":"VEC3"},{"bufferView":4,"componentType":5126,"count":36,"type":"VEC3","min":[-3.1,0.15000000000000002,-0.05],"max":[-2.3000000000000003,1.15,0.05]},{"bufferView":5,"componentType":5126,"count":36,"type":"VEC3"}]}
